HIERARCHY
ROOT Hips
{
  OFFSET -69.4423 88.0299 51.6846
  CHANNELS 6 Xposition Yposition Zposition Zrotation Xrotation Yrotation
  JOINT Spine
  {
    OFFSET 12.0259 -0.162853 1.93176e-005
    CHANNELS 3 Zrotation Xrotation Yrotation
    JOINT Spine1
    {
      OFFSET 15.3169 -0.0121909 0
      CHANNELS 3 Zrotation Xrotation Yrotation
      JOINT Spine2
      {
        OFFSET 15.3176 -0.0121922 0
        CHANNELS 3 Zrotation Xrotation Yrotation
        JOINT Neck
        {
          OFFSET 19.9142 1.56236 0
          CHANNELS 3 Zrotation Xrotation Yrotation
          JOINT Head
          {
            OFFSET 6.92646 0 0
            CHANNELS 3 Zrotation Xrotation Yrotation
            End Site
            {
              OFFSET 20.7666 0 0
            }
          }
          JOINT LeftShoulder
          {
            OFFSET -4.94072 -1.14703 8.14416
            CHANNELS 3 Zrotation Xrotation Yrotation
            JOINT LeftArm
            {
              OFFSET 14.108 0 -2.74767e-005
              CHANNELS 3 Zrotation Xrotation Yrotation
              JOINT LeftForeArm
              {
                OFFSET 28.5802 -0.0783412 -0.0284884
                CHANNELS 3 Zrotation Xrotation Yrotation
                JOINT LeftHand
                {
                  OFFSET 27.092 0 0
                  CHANNELS 3 Zrotation Xrotation Yrotation
                  End Site
                  {
                    OFFSET 9.55928 -0.186424 0.145352
                  }
                }
              }
            }
          }
          JOINT RightShoulder
          {
            OFFSET -7.15748 -1.33027 -6.24935
            CHANNELS 3 Zrotation Xrotation Yrotation
            JOINT RightArm
            {
              OFFSET 14.108 0 1.82997e-005
              CHANNELS 3 Zrotation Xrotation Yrotation
              JOINT RightForeArm
              {
                OFFSET 28.5802 -0.0707221 2.30684e-005
                CHANNELS 3 Zrotation Xrotation Yrotation
                JOINT RightHand
                {
                  OFFSET 27.092 0 -1.30073e-005
                  CHANNELS 3 Zrotation Xrotation Yrotation
                  End Site
                  {
                    OFFSET 9.55929 -0.186417 -0.145354
                  }
                }
              }
            }
          }
        }
      }
    }
  }
  JOINT LeftUpLeg
  {
    OFFSET 0.00499725 -0.534999 8.837
    CHANNELS 3 Zrotation Xrotation Yrotation
    JOINT LeftLeg
    {
      OFFSET 39.9035 -0.00124594 0.000252775
      CHANNELS 3 Zrotation Xrotation Yrotation
      JOINT LeftFoot
      {
        OFFSET 39.6689 0 0
        CHANNELS 3 Zrotation Xrotation Yrotation
        JOINT LeftToe
        {
          OFFSET 10.1624 13.6296 0
          CHANNELS 3 Zrotation Xrotation Yrotation
          End Site
          {
            OFFSET 8.38147 0 0
          }
        }
      }
    }
  }
  JOINT RightUpLeg
  {
    OFFSET 0.00499725 -0.535 -8.837
    CHANNELS 3 Zrotation Xrotation Yrotation
    JOINT RightLeg
    {
      OFFSET 39.9036 -0.000268477 0.000106433
      CHANNELS 3 Zrotation Xrotation Yrotation
      JOINT RightFoot
      {
        OFFSET 39.6689 1.17892e-005 0
        CHANNELS 3 Zrotation Xrotation Yrotation
        JOINT RightToe
        {
          OFFSET 10.1624 13.6296 0
          CHANNELS 3 Zrotation Xrotation Yrotation
          End Site
          {
            OFFSET 8.38147 0 0
          }
        }
      }
    }
  }
}
MOTION
Frames:	10
Frame Time:	0.0333333
-4.0052 89.1708 4.71088 -98.1053 77.7518 -171.869 1.08082 0.342841 0.854217 2.15647 0.702231 1.70202 2.15647 0.702213 1.702 -21.2974 -0.123756 -13.0243 44.5887 0.719739 11.2398 -160.757 -3.97739 -96.1712 -26.6019 3.5241 87.8255 -27.3776 3.47074 -17.376 4.81162 -83.7564 6.74168 -160.514 -5.63115 72.6764 -14.0344 -3.3267 -83.1125 -22.042 -2.77361 13.986 1.51584 80.0924 -1.40001 -8.80026 3.40769 -177.131 -22.2322 0.915792 -0.773283 6.32737 2.13958 0.0850233 90 -5.56597e-015 -1.74931e-014 -4.43915 -7.27339 -175.579 -22.5022 -0.58444 -0.0894851 5.56866 12.1702 0.0339575 90 -1.19271e-015 -1.11319e-014 
-3.88286 89.3389 4.64883 -96.8918 75.5107 -173.04 1.13046 0.385647 0.874259 2.25499 0.788985 1.74096 2.25498 0.788961 1.74095 -21.2072 0.243311 -12.6173 44.6563 1.05661 10.2439 -160.741 -3.43852 -95.976 -27.1339 3.45976 87.8566 -28.4585 3.70548 -17.9266 4.41916 -84.2844 6.42855 -160.497 -5.10215 72.9486 -14.0555 -3.73909 -82.7843 -21.9968 -2.76726 13.9648 1.66994 80.5876 -1.55026 -10.3461 6.43022 -176.813 -24.3211 0.903679 -0.794677 6.03324 -2.74747 0.201547 90 5.56597e-015 9.54166e-015 -3.67493 -7.9396 -175.469 -21.155 -0.603706 -0.0585063 5.08353 13.5083 0.192648 90 -8.15017e-015 7.95139e-016 
-3.73756 89.4796 4.66521 -95.7167 73.2243 -174.314 1.20695 0.457492 0.91315 2.40659 0.934559 1.81671 2.40658 0.934559 1.8167 -21.2245 0.442011 -12.2579 44.7571 1.16104 9.53267 -160.659 -3.09699 -95.7285 -27.4645 3.19518 87.79 -28.9783 3.82307 -18.1951 4.26726 -84.3235 6.30244 -160.411 -4.77456 73.2161 -13.5633 -3.83808 -82.5482 -21.582 -2.67566 13.7421 1.60224 80.2384 -1.48753 -11.645 9.34221 -176.176 -26.0392 0.88523 -0.7982 6.04204 -6.9537 0.296815 90 1.19271e-014 9.54166e-015 -2.56684 -8.16161 -175.096 -19.5747 -0.612073 -0.013296 4.42986 15.5423 0.423989 90 -1.80894e-014 -1.43125e-014 
-3.54093 89.5715 4.75378 -94.6816 70.9983 -175.453 1.22915 0.500231 0.908851 2.45037 1.02035 1.80702 2.45035 1.02033 1.80702 -20.9933 0.353463 -12.5429 44.8161 1.26059 10.0004 -160.919 -3.25781 -96.0113 -27.4453 3.608 87.6521 -29.4553 3.92769 -18.421 4.10558 -84.2645 6.11745 -160.671 -4.92693 72.9738 -12.9292 -3.92073 -82.5778 -21.1943 -2.59137 13.5279 1.55123 79.6901 -1.41477 -12.8016 12.4308 -175.32 -26.5273 0.853388 -0.808917 4.97157 -9.45193 0.122344 90 8.74653e-015 1.27222e-014 -1.58746 -8.71715 -174.801 -18.3641 -0.621071 0.0197316 4.05377 16.8662 0.574608 90 1.23246e-014 1.19271e-014 
-3.19321 89.6511 4.79395 -94.2413 68.4145 -175.554 1.22981 0.476508 0.840727 2.45264 0.971419 1.67127 2.45262 0.9714 1.67126 -20.9917 0.529849 -12.34 45.0466 1.40904 9.4874 -160.873 -3.01446 -95.8891 -27.5066 3.90295 87.5848 -29.5491 3.95031 -18.455 4.94496 -85.0558 6.98273 -160.622 -4.66151 73.1063 -12.7742 -4.05578 -82.4719 -21.073 -2.56711 13.4636 1.56849 79.7594 -1.42543 -13.3033 14.2584 -175.324 -25.6238 0.837633 -0.862001 4.8866 -11.2834 0.111192 90 -3.97569e-015 -3.18055e-015 -0.928097 -9.83823 -175.082 -17.5019 -0.625403 0.0499839 3.87178 18.0588 0.670602 90 -1.33186e-014 -3.97569e-015 
-2.88031 89.705 4.94257 -93.9224 65.8379 -176.216 1.17176 0.497385 0.852476 2.33612 1.01252 1.69486 2.33611 1.01253 1.69484 -20.8597 0.481658 -12.003 45.4468 1.24163 9.14615 -160.973 -2.88901 -95.54 -26.8688 3.80986 87.1522 -28.8342 3.77366 -18.0877 4.59487 -84.0165 6.44246 -160.746 -4.55004 73.4243 -12.4367 -4.2796 -82.6646 -21.232 -2.60359 13.5512 1.62686 80.1114 -1.48314 -13.8938 15.2823 -174.626 -24.2508 0.808877 -0.931664 4.16258 -12.8817 -0.0884137 90 -1.03368e-014 6.36111e-015 0.0614084 -10.351 -174.487 -16.1882 -0.627986 0.0968953 3.40349 19.9881 0.862898 90 -1.05356e-014 6.36111e-015 
-2.41163 89.7609 4.91643 -94.1069 63.1026 -176.103 1.10233 0.434764 0.853738 2.19817 0.886393 1.69917 2.19817 0.88639 1.69916 -20.6665 0.52047 -11.8449 45.0848 1.05393 8.64023 -161.149 -2.74523 -95.3896 -26.3839 3.93839 87.0677 -28.237 3.68681 -17.7853 5.3994 -84.5253 7.48658 -160.919 -4.39753 73.5432 -12.3095 -4.22799 -82.4772 -21.2538 -2.61035 13.5638 1.66277 80.1289 -1.5224 -14.1682 14.973 -174.754 -22.1757 0.782474 -1.06213 3.14071 -16.1898 -0.390707 90 -7.95139e-016 3.18055e-015 0.575635 -10.9889 -174.388 -15.0728 -0.629055 0.14138 2.83262 21.8829 1.11226 90 -6.75868e-015 9.54166e-015 
-1.83386 89.8507 5.05047 -93.8132 60.7617 -176.59 1.10679 0.462486 0.874277 2.20655 0.94222 1.73971 2.20654 0.942217 1.7397 -21.0577 0.601644 -12.0359 45.5975 1.23018 8.78461 -160.757 -2.8197 -95.5329 -25.2887 3.7917 86.9481 -27.5082 3.54702 -17.4132 5.22934 -83.432 7.29905 -160.529 -4.46269 73.3524 -12.6997 -4.13882 -82.286 -21.3173 -2.62694 13.6025 1.85777 80.6096 -1.72242 -13.7506 13.7437 -174.875 -19.7927 0.751694 -1.20274 1.29456 -20.4862 -1.07794 90 -1.59028e-015 -6.36111e-015 1.61681 -11.5162 -174.101 -13.6355 -0.628847 0.188891 2.04906 23.4162 1.45996 90 -1.68967e-014 -1.74931e-014 
-1.20888 89.8384 5.13907 -93.5945 58.4996 -177.084 1.04649 0.549942 0.884375 2.08454 1.11647 1.75883 2.08451 1.11644 1.75883 -20.7339 0.480283 -11.9803 45.4149 1.0231 8.75077 -161.092 -2.85823 -95.4424 -24.9888 4.24262 86.888 -26.9035 3.41342 -17.0887 5.63081 -83.473 7.65691 -160.864 -4.4734 73.4234 -12.4546 -4.18168 -82.2656 -21.6739 -2.70547 13.7898 1.9046 80.8184 -1.77319 -13.0824 11.324 -174.973 -17.3805 0.708005 -1.31781 -2.20883 -23.9317 -2.59088 90 -8.74653e-015 -3.18055e-015 2.42469 -12.008 -173.786 -12.7637 -0.627596 0.229387 1.86204 24.9934 1.57159 90 -8.74653e-015 -7.15625e-015 
-0.465189 89.7343 5.28667 -93.0682 56.39 -177.803 1.04683 0.628634 0.924337 2.08357 1.27442 1.83736 2.08358 1.27443 1.83734 -20.7964 0.537707 -11.964 45.6173 1.12014 8.66301 -161.016 -2.81502 -95.425 -24.8308 4.45741 86.9395 -26.373 3.29604 -16.8083 5.96418 -83.8565 7.97849 -160.788 -4.40179 73.4238 -12.1862 -4.07941 -81.805 -22.0151 -2.78711 13.9667 1.72387 79.8246 -1.57337 -11.8286 9.2602 -175.124 -15.1933 0.6818 -1.35386 -5.09927 -23.283 -3.69531 90 -3.18055e-015 -3.18055e-015 2.5227 -12.6522 -173.682 -13.9501 -0.625542 0.227536 3.22696 26.3584 0.952606 90 -1.39149e-014 -2.06736e-014 
